<?xml version="1.0" encoding="iso-8859-1"?>
<!-- Uploaded to: SVG Repo, www.svgrepo.com, Generator: SVG Repo Mixer Tools -->
<!DOCTYPE svg PUBLIC "-//W3C//DTD SVG 1.1//EN" "http://www.w3.org/Graphics/SVG/1.1/DTD/svg11.dtd">
<svg fill="#000000" version="1.1" id="Capa_1" xmlns="http://www.w3.org/2000/svg" xmlns:xlink="http://www.w3.org/1999/xlink" 
	 width="800px" height="800px" viewBox="0 0 192.464 192.464"
	 xml:space="preserve">
<g>
	<path d="M159.201,83.84c-0.979-21.423-11.586-41.856-30.237-53.239c-20.817-12.704-40.919-0.644-52.974,16.787
		C48.616,32.435,20.671,66.06,35.875,92.495c-25.882-0.271-47.017,32.868-29.385,55.75c17.639,22.893,61.092,18.729,86.311,18.388
		c33.753-0.456,73.455,1.968,93.793-30.598C202.022,111.33,184.999,84.364,159.201,83.84z M87.776,130.887
		c-4.548-7.002-10.217-12.997-16.812-18.057c4.08-3.442,6.937-2.526,12.452,2.272c4.503,3.92,8.854,7.763,13.8,11.11
		c2.003,1.356,5.117,0.029,5.637-2.293c4.83-21.584,6.907-43.643,11.179-65.331c6.883,1.357,12.822,4.82,18.56,8.794
		c-2.6,10.662-3.368,22.007-5.988,32.741c-3.281,13.44-7.479,26.637-10.923,40.032c-4.497,0.043-8.993,0.08-13.49,0.108
		C93.146,140.326,92.342,137.916,87.776,130.887z M82.218,153.304c1.222,0.575,2.493,1.101,3.8,1.591
		c-1.68,0.015-3.359,0.018-5.041,0.022C81.491,154.46,81.894,153.911,82.218,153.304z M170.616,97.81
		c-0.944-0.148-1.912-0.094-2.801,0.209c-2.483-2.152-5.83-3.251-10.356-2.499c-0.657,0.109-1.223,0.291-1.815,0.451
		c-0.104-0.131-0.229-0.219-0.342-0.332C161.219,94.699,166.469,95.472,170.616,97.81z M167.271,140.819
		c0.519-1.196,0.947-2.41,1.309-3.638c1.53-0.444,2.891-1.065,4.154-1.777C171.079,137.355,169.232,139.165,167.271,140.819z"/>
</g>
</svg>